<?xml version="1.0" encoding="utf-8"?>
<!-- Generator: Adobe Illustrator 22.1.0, SVG Export Plug-In . SVG Version: 6.00 Build 0)  -->
<svg version="1.1" id="Layer_1" xmlns="http://www.w3.org/2000/svg" xmlns:xlink="http://www.w3.org/1999/xlink" x="0px" y="0px"
	 viewBox="0 0 327.6 330" style="enable-background:new 0 0 327.6 330;" xml:space="preserve">
<style type="text/css">
	.st0{fill:#26C16F;}
</style>
<g>
	<path class="st0" d="M306.1,118.5c-0.6,17,1.4,38.1-0.8,59c-6.1,56.2-35.2,96.8-87.1,118.6C133,331.7,39,278.9,23.3,187.9
		C10.3,112.3,62.1,38.8,138.2,25c8.9-1.6,17.8-2.3,26.8-2.3c34.3,0,68.7,0,103,0c23,0,37.9,14.9,38,37.8
		C306.1,78.5,306.1,96.5,306.1,118.5z M228.9,171.2c0-7,0.1-14,0-21c-0.4-33.8-26.8-62.1-59.9-64.2c-35.6-2.3-65.8,21.7-70,56.5
		c-2.2,18-1.1,36.3-0.5,54.4c0.4,11.3,10,19.5,21.3,19.8c5,0.2,10-0.1,15,0.1c2.6,0.1,3.5-0.8,3.5-3.4c-0.1-14.7-0.1-29.3,0-44
		c0-2.9-1.1-3.7-3.8-3.6c-5.8,0.2-11.7-0.1-17.5,0.1c-3,0.1-4.2-0.7-4-3.9c0.3-4.3,0-8.7,0.1-13c0.8-21.4,15.3-40,35.8-46.4
		c20.3-6.3,42.5,0.8,55.5,17.6c10,12.9,11.2,27.7,10.6,43.1c-0.1,2.5-1.6,2.5-3.4,2.5c-5.8,0-11.7,0.3-17.5-0.1
		c-4-0.2-4.7,1.3-4.7,4.9c0.2,11,0,22,0.1,33c0.1,4.3-1.9,9.8,1,12.4c2.3,2,7.6,0.6,11.6,0.7c0.2,0,0.3,0,0.5,0
		c3.8-0.6,4,1.5,3.6,4.5c-1.3,8.9-9.2,15.8-18.9,16.1c-6.2,0.2-12.3,0.1-18.5,0.1c-2.1,0-4.4,0.4-4.4,3c-0.1,2.8,2.1,3.4,4.5,3.4
		c5.5,0,11,0,16.5,0c14.6-0.2,25-9.2,27-23.6c0.4-2.8,1.2-4.3,3.8-5.6c8.2-4,12.5-10.8,12.6-20C229,186.8,228.9,179,228.9,171.2z"/>
</g>
</svg>
